<svg width="634" height="587" viewBox="0 0 634 587" fill="none" xmlns="http://www.w3.org/2000/svg">
<path d="M473.347 582.392V356.087H431.522L396.259 488.374L360.996 356.087H333.847V582.392H358.942V462.427L385.74 562.105H404.273L430.871 462.277V582.392H473.347Z" fill="#0C4132"/>
<path d="M158.834 512.667C158.834 535.257 165.847 553.49 179.672 566.814C193.496 580.187 211.328 586.95 232.716 586.95C254.105 586.95 272.237 579.937 286.663 566.162C301.089 552.388 308.402 533.905 308.402 511.314V425.11C308.402 402.52 301.339 384.287 287.364 370.963C273.389 357.589 255.457 350.827 234.069 350.827C212.681 350.827 194.598 357.84 180.323 371.614C166.047 385.389 158.784 403.872 158.784 426.462V512.667H158.834ZM201.31 416.545C201.31 404.874 203.715 392.201 209.625 385.74C215.586 379.228 223.7 375.922 233.718 375.922C243.736 375.922 251.45 379.228 257.561 385.74C263.672 392.251 266.126 404.874 266.126 416.545L266.026 520.431C266.026 531.801 263.522 545.225 257.461 551.837C251.35 558.499 243.335 561.855 233.618 561.855C223.901 561.855 215.486 558.449 209.525 551.787C203.564 545.175 201.21 531.751 201.21 520.38L201.31 416.495V416.545Z" fill="#0C4132"/>
<path d="M132.287 582.391V209.675H107.142V356.237H42.4762V209.675H0.000244141V582.391H42.4762V381.332H107.142V582.391H132.287Z" fill="#0C4132"/>
<path d="M623.415 381.332V356.237H547.029L546.929 234.77H633.433V209.675H504.453V582.442H633.984V557.347H546.929V381.332H623.415Z" fill="#0C4132"/>
<path fill-rule="evenodd" clip-rule="evenodd" d="M316.967 0C224.502 0 149.568 73.6317 149.568 164.444C149.568 255.257 224.552 328.888 317.017 328.888C409.483 328.888 484.467 255.257 484.467 164.444C484.417 73.6317 409.483 0 316.967 0ZM316.967 304.194C238.377 304.194 174.663 241.632 174.663 164.444C174.663 87.2561 238.377 24.6942 316.967 24.6942C395.558 24.6942 459.272 87.2561 459.272 164.444C459.272 241.632 395.558 304.194 316.967 304.194Z" fill="#0C4132"/>
<path d="M408.932 174.312C413.891 174.312 417.898 178.219 417.898 183.077C417.898 187.886 413.84 191.843 408.932 191.843H387.994V174.362H408.932V174.312ZM402.52 138.848C407.479 138.848 411.486 142.755 411.486 147.614C411.486 152.422 407.479 156.379 402.52 156.379H387.994V138.848H402.52ZM378.778 120.916H369.561V209.725H408.882C423.959 209.725 436.231 197.753 436.231 183.027C436.231 173.21 431.071 166.297 424.56 162.49C424.459 162.44 424.409 162.09 424.56 161.989C427.615 158.533 429.869 152.773 429.869 147.664C429.869 132.938 417.597 120.916 402.52 120.916H378.778Z" fill="#0C4132"/>
<path d="M245.389 174.312C250.348 174.312 254.355 178.219 254.355 183.077C254.355 187.936 250.298 191.843 245.389 191.843H224.452V174.362H245.389V174.312ZM238.978 138.848C243.937 138.848 247.944 142.755 247.944 147.614C247.944 152.472 243.937 156.379 238.978 156.379H224.452V138.848H238.978ZM215.235 120.916H206.019V209.725H245.339C260.416 209.725 272.688 197.753 272.688 183.027C272.688 173.21 267.529 166.297 261.017 162.49C260.917 162.44 260.867 162.09 261.017 161.989C264.073 158.533 266.327 152.773 266.327 147.664C266.327 132.938 254.055 120.916 238.978 120.916H215.235Z" fill="#0C4132"/>
<path d="M355.837 186.033C355.686 188.688 355.035 191.292 353.983 193.847C352.931 196.401 351.279 198.505 349.125 200.208C346.971 201.911 344.266 202.763 340.96 202.763C339.357 202.763 337.754 202.512 336.151 202.011C334.599 201.51 332.896 200.609 331.042 199.307C329.239 198.004 326.935 196.051 324.28 193.396C320.824 196.602 317.318 199.006 313.761 200.559C310.205 202.112 306.799 202.913 303.543 202.913C299.837 202.913 296.481 202.061 293.475 200.308C290.47 198.555 288.216 196.301 286.563 193.496C284.96 190.691 284.108 187.686 284.108 184.43C284.108 182.527 284.409 180.473 285.06 178.269C285.711 176.065 287.214 173.51 289.618 170.605C292.023 167.7 295.529 165.045 300.087 162.591C298.334 159.636 296.981 156.981 296.08 154.677C295.178 152.373 294.727 149.868 294.727 147.213C294.727 144.559 295.228 142.305 296.23 140.251C297.232 138.197 298.534 136.544 300.087 135.242C301.64 133.99 303.443 132.988 305.447 132.337C307.45 131.686 309.454 131.335 311.507 131.335C314.513 131.335 317.117 131.986 319.321 133.288C321.525 134.591 323.228 136.244 324.431 138.297C325.583 140.351 326.184 142.455 326.184 144.659C326.184 147.564 325.132 150.469 322.978 153.324C320.824 156.179 317.719 158.684 313.611 160.788L329.59 181.324C331.543 178.97 333.196 176.566 334.699 174.162C336.151 171.757 336.903 169.403 336.903 167.149C336.903 166.398 336.552 165.496 335.901 164.344C335.25 163.242 333.797 162.641 331.543 162.641V157.983H352.831V162.641C350.928 163.042 349.425 163.643 348.273 164.394C347.121 165.145 346.069 166.097 345.168 167.249C344.266 168.401 342.713 170.655 340.609 173.961L338.406 177.518C336.502 180.473 334.649 182.927 332.745 184.981C334.398 187.335 336.352 189.489 338.556 191.392C340.76 193.296 342.813 194.247 344.767 194.247C345.719 194.247 346.57 193.997 347.472 193.496C348.323 192.995 349.075 192.144 349.726 190.841C350.377 189.589 350.828 187.936 351.078 185.983H355.887L355.837 186.033ZM321.275 189.89L303.042 166.648C297.883 169.704 295.278 173.46 295.278 177.968C295.278 180.523 295.98 183.078 297.332 185.632C298.735 188.137 300.538 190.24 302.892 191.893C305.196 193.546 307.701 194.348 310.355 194.348C312.509 194.348 314.413 193.897 316.116 193.045C317.819 192.194 319.522 191.142 321.275 189.89ZM319.171 144.408C319.171 143.006 318.921 141.704 318.37 140.501C317.819 139.299 317.017 138.297 315.915 137.546C314.813 136.795 313.511 136.394 312.008 136.394C309.854 136.394 308.151 137.095 306.899 138.448C305.647 139.8 305.046 141.353 305.046 143.056C305.046 147.013 306.949 151.571 310.856 156.78C313.361 154.927 315.414 153.074 316.917 151.321C318.47 149.568 319.221 147.263 319.221 144.458L319.171 144.408Z" fill="#0C4132"/>
</svg>
